<svg 
 xmlns="http://www.w3.org/2000/svg"
 xmlns:xlink="http://www.w3.org/1999/xlink"
 viewBox="0 0 1000 1000">
<path fill-rule="evenodd"  fill="rgb(255, 255, 255)"
 d="M-0.000,-0.000 L1000.000,-0.000 L1000.000,1000.000 L-0.000,1000.000 L-0.000,-0.000 Z"/>
<path fill-rule="evenodd"  fill="rgb(178, 178, 178)"
 d="M326.000,620.000 L677.000,620.000 C781.934,620.000 867.000,705.066 867.000,810.000 L867.000,1000.000 L136.000,1000.000 L136.000,810.000 C136.000,705.066 221.066,620.000 326.000,620.000 Z"/>
<path fill-rule="evenodd"  fill="rgb(255, 255, 255)"
 d="M500.000,196.000 C625.921,196.000 728.000,298.079 728.000,424.000 C728.000,549.921 625.921,652.000 500.000,652.000 C374.079,652.000 272.000,549.921 272.000,424.000 C272.000,298.079 374.079,196.000 500.000,196.000 Z"/>
<path fill-rule="evenodd"  fill="rgb(178, 178, 178)"
 d="M500.000,146.000 C625.921,146.000 728.000,248.079 728.000,374.000 C728.000,499.921 625.921,602.000 500.000,602.000 C374.079,602.000 272.000,499.921 272.000,374.000 C272.000,248.079 374.079,146.000 500.000,146.000 Z"/>
</svg>
