<svg 
 xmlns="http://www.w3.org/2000/svg"
 xmlns:xlink="http://www.w3.org/1999/xlink"
 viewBox="0 0 1000 1000">
<path fill-rule="evenodd"  fill="rgb(196, 81, 70)"
 d="M500.000,-0.000 C776.142,-0.000 1000.000,223.858 1000.000,500.000 C1000.000,776.142 776.142,1000.000 500.000,1000.000 C223.858,1000.000 -0.000,776.142 -0.000,500.000 C-0.000,223.858 223.858,-0.000 500.000,-0.000 Z"/>
<path fill-rule="evenodd"  fill="rgb(255, 255, 255)"
 d="M501.000,120.000 C544.630,120.000 580.000,155.370 580.000,199.000 L580.000,549.000 C580.000,592.630 544.630,628.000 501.000,628.000 C457.370,628.000 422.000,592.630 422.000,549.000 L422.000,199.000 C422.000,155.370 457.370,120.000 501.000,120.000 Z"/>
<path fill-rule="evenodd"  fill="rgb(255, 255, 255)"
 d="M500.000,721.000 C544.183,721.000 580.000,756.817 580.000,801.000 C580.000,845.183 544.183,881.000 500.000,881.000 C455.817,881.000 420.000,845.183 420.000,801.000 C420.000,756.817 455.817,721.000 500.000,721.000 Z"/>
</svg>
